<svg width="126" height="65" viewBox="0 0 126 65" fill="none" xmlns="http://www.w3.org/2000/svg">
<g filter="url(#filter0_d_193_101)">
<path d="M31.3685 19.0847C31.6074 20.8823 31.1795 22.5209 30.0849 24.0006C28.9874 25.4592 27.2606 26.6356 24.9046 27.5297C26.2635 27.715 27.3361 28.1751 28.1224 28.9099C28.9059 29.6236 29.3679 30.5091 29.5084 31.5665C29.7304 33.2371 29.3942 34.756 28.4998 36.123C27.6265 37.4873 26.2303 38.6412 24.3113 39.5849C22.3893 40.5074 20.0115 41.1569 17.1778 41.5335C16.1204 41.674 15.2703 41.7546 14.6274 41.7755C14.6849 42.3704 14.4902 42.8482 14.0431 43.2089C13.5961 43.5696 12.9919 43.8006 12.2306 43.9017C11.4693 44.0029 10.9181 43.9039 10.5771 43.6049C10.2572 43.3031 10.0749 42.8216 10.0301 42.1604C9.827 39.1745 9.78542 36.0272 9.90533 32.7186C10.0224 29.3888 10.303 26.1557 10.7471 23.0192C10.8249 22.4708 11.0718 22.0614 11.4878 21.7909C11.9038 21.5204 12.4713 21.3374 13.1903 21.2419C14.4803 21.0705 15.1731 21.3443 15.2686 22.0633C15.3079 22.3594 15.2894 22.7062 15.2131 23.1037C14.8825 24.8262 14.6305 27.1409 14.4572 30.0477C14.2811 32.9334 14.2467 35.6711 14.3541 38.2609C15.3804 38.2106 16.2108 38.1433 16.8452 38.059C19.8059 37.6656 21.9173 36.9546 23.1795 35.9261C24.46 34.8736 25.0117 33.6812 24.8347 32.3489C24.7111 31.4184 24.2053 30.6893 23.3174 30.1617C22.4506 29.6312 21.0826 29.4579 19.2132 29.6418C18.7874 29.6768 18.4773 29.6104 18.2828 29.4426C18.0884 29.2747 17.963 28.9793 17.9068 28.5564C17.8253 27.9431 17.8862 27.4293 18.0894 27.0149C18.2926 26.6005 18.7311 26.3378 19.405 26.2267C20.9009 25.9849 22.2248 25.5831 23.3768 25.0211C24.55 24.4563 25.4377 23.768 26.0401 22.9563C26.6396 22.1234 26.8747 21.2206 26.7455 20.2478C26.5825 19.0212 25.8519 18.1391 24.5538 17.6014C23.2528 17.0426 21.3547 16.9289 18.8593 17.2605C16.5965 17.5612 14.4471 18.1481 12.411 19.0212C10.3721 19.8732 8.67153 20.8416 7.30922 21.9265C6.68589 22.4182 6.1416 22.695 5.67636 22.7568C5.29571 22.8074 4.98278 22.7198 4.73759 22.4942C4.51073 22.2445 4.37061 21.9188 4.31722 21.517C4.24697 20.9883 4.29229 20.5196 4.45319 20.1108C4.63523 19.6993 5.11689 19.1941 5.89816 18.5953C7.53967 17.3442 9.51732 16.2744 11.8311 15.3859C14.1449 14.4974 16.5495 13.8873 19.0449 13.5558C22.8726 13.0472 25.8132 13.3128 27.8667 14.3527C29.9203 15.3926 31.0875 16.97 31.3685 19.0847ZM42.8116 23.1812C43.2979 23.1166 43.6447 23.135 43.8519 23.2366C44.0591 23.3382 44.1824 23.5371 44.2217 23.8331C44.2891 24.3407 44.2545 26.1853 44.1177 29.367C44.0275 32.4135 43.9767 34.2172 43.9651 34.7783C43.9048 40.3171 43.3981 44.764 42.445 48.1187C41.4919 51.4735 39.8734 53.3026 37.5895 53.6061C36.511 53.7494 35.5884 53.5277 34.8218 52.9408C34.0579 52.3752 33.6044 51.5531 33.4611 50.4746C33.329 49.4807 33.4162 48.4361 33.7226 47.3408C34.0501 46.2428 34.7373 44.9356 35.784 43.4192C36.8547 41.9211 38.4062 40.1547 40.4385 38.1199L40.4368 37.3777C40.4808 36.5755 40.5011 35.4322 40.4975 33.9478C40.2769 35.5266 39.8393 36.7684 39.1848 37.6732C38.5274 38.5568 37.7758 39.0548 36.9299 39.1672C35.9783 39.2936 35.1382 38.9641 34.4097 38.1785C33.6996 37.369 33.2574 36.3087 33.0832 34.9975C32.8724 33.4115 32.7857 31.9488 32.823 30.6096C32.8574 29.2492 33.0195 27.7965 33.3092 26.2515C33.4364 25.589 33.672 25.095 34.0161 24.7695C34.3603 24.444 34.9447 24.2265 35.7694 24.1169C36.2347 24.0551 36.5617 24.0869 36.7506 24.2125C36.9606 24.3352 37.0853 24.5446 37.1246 24.8407C37.1471 25.0099 37.1066 25.5963 37.0033 26.6C36.8958 27.4106 36.8207 28.1415 36.7781 28.7928C36.7242 29.6823 36.6871 30.5373 36.667 31.3578C36.6441 32.1571 36.6663 32.8105 36.7338 33.318C36.8406 34.1216 37.116 34.4939 37.5601 34.4349C37.8773 34.3928 38.2264 34.0236 38.6073 33.3273C39.0094 32.6283 39.3891 31.5986 39.7464 30.2384C40.1248 28.8753 40.4428 27.219 40.7002 25.2695C40.7851 24.6126 40.9785 24.1242 41.2803 23.8043C41.6033 23.4816 42.1137 23.2739 42.8116 23.1812ZM37.5296 50.4828C38.0583 50.4125 38.5689 49.7206 39.0615 48.4069C39.5541 47.0932 39.9385 44.9654 40.2147 42.0234C38.769 43.6143 37.7506 45.0194 37.1593 46.2386C36.5921 47.4761 36.3646 48.5178 36.477 49.3637C36.5248 49.7232 36.6276 50.0108 36.7854 50.2266C36.9643 50.4395 37.2124 50.5249 37.5296 50.4828ZM77.9745 6.75857C78.647 6.79834 79.1629 6.95576 79.5222 7.23083C79.9027 7.50308 80.1211 7.85068 80.1773 8.27363C80.27 8.97149 80.1366 9.50573 79.7769 9.87633C79.4384 10.2441 78.842 10.4525 77.9876 10.5014C76.0647 10.6063 74.5612 10.7092 73.477 10.8103C72.4112 10.8873 71.0099 11.0305 69.273 11.2397C69.0075 15.2348 68.8084 19.2427 68.6754 23.2632C68.6339 24.7321 68.6127 26.4351 68.6118 28.3721C68.6081 30.2879 68.6413 31.833 68.7112 33.0074C68.7504 33.6263 68.5599 34.1358 68.1396 34.536C67.7165 34.915 67.1772 35.1481 66.5216 35.2352C65.8237 35.3279 65.262 35.2304 64.8364 34.9426C64.4108 34.6549 64.1614 34.236 64.0884 33.6862C64.0209 33.1787 63.9839 32.3335 63.9774 31.1507C63.9893 29.944 64.0152 28.6816 64.0553 27.3635C64.1165 26.0426 64.1473 24.8979 64.1477 23.9294C64.1668 22.2913 64.219 20.6595 64.3043 19.0341C64.3896 17.4087 64.4862 15.8679 64.594 14.4117C64.6153 14.086 64.6415 13.7167 64.6727 13.3037C64.7011 12.8695 64.7345 12.3916 64.7728 11.87C62.7087 12.2088 61.1029 12.5943 59.9551 13.0266C58.8074 13.4589 58.0135 13.9625 57.5734 14.5375C57.1516 15.0885 56.9927 15.7553 57.0967 16.5377C57.1922 17.2567 57.495 17.9159 58.0051 18.5153C58.1094 18.6521 58.1727 18.8051 58.1952 18.9743C58.2486 19.3761 58.056 19.789 57.6174 20.2132C57.1971 20.6133 56.7332 20.8471 56.2256 20.9146C55.8661 20.9624 55.556 20.896 55.2953 20.7154C54.8246 20.4121 54.4082 19.9509 54.0462 19.3319C53.6813 18.6917 53.4427 17.9486 53.3303 17.1027C53.0915 15.3052 53.4819 13.7899 54.5018 12.5568C55.5399 11.2998 57.2201 10.2588 59.5423 9.4337C61.8857 8.60582 64.9395 7.9418 68.7037 7.44163C71.03 7.13254 72.886 6.92896 74.2718 6.83091C75.6788 6.73004 76.913 6.70593 77.9745 6.75857ZM100.093 3.81965C100.765 3.85942 101.281 4.01684 101.64 4.29191C102.021 4.56416 102.239 4.91176 102.295 5.33471C102.388 6.03258 102.255 6.56681 101.895 6.93741C101.556 7.3052 100.96 7.51358 100.106 7.56253C98.1828 7.66739 96.6793 7.77033 95.5951 7.87134C94.5293 7.9484 93.128 8.09156 91.3911 8.30083C91.1256 12.2959 90.9265 16.3037 90.7935 20.3243C90.752 21.7932 90.7308 23.4962 90.7299 25.4332C90.7262 27.349 90.7594 28.8941 90.8293 30.0685C90.8685 30.6874 90.678 31.1969 90.2577 31.5971C89.8346 31.9761 89.2953 32.2092 88.6397 32.2963C87.9418 32.389 87.3801 32.2915 86.9545 32.0037C86.5289 31.7159 86.2795 31.2971 86.2065 30.7473C86.139 30.2398 86.102 29.3946 86.0955 28.2118C86.1074 27.0051 86.1333 25.7427 86.1734 24.4246C86.2346 23.1037 86.2654 21.959 86.2658 20.9905C86.2849 19.3523 86.3371 17.7206 86.4224 16.0952C86.5077 14.4698 86.6043 12.929 86.7121 11.4728C86.7334 11.1471 86.7596 10.7778 86.7908 10.3647C86.8192 9.93055 86.8526 9.45266 86.8909 8.93107C84.8269 9.26988 83.221 9.65543 82.0732 10.0877C80.9255 10.52 80.1316 11.0236 79.6915 11.5986C79.2697 12.1496 79.1108 12.8163 79.2148 13.5988C79.3103 14.3178 79.6131 14.977 80.1232 15.5764C80.2275 15.7132 80.2908 15.8662 80.3133 16.0353C80.3667 16.4371 80.1741 16.8501 79.7355 17.2742C79.3152 17.6744 78.8513 17.9082 78.3437 17.9757C77.9842 18.0234 77.6741 17.957 77.4134 17.7765C76.9427 17.4732 76.5263 17.012 76.1643 16.3929C75.7994 15.7528 75.5608 15.0097 75.4484 14.1638C75.2096 12.3663 75.6001 10.851 76.6199 9.61791C77.658 8.36089 79.3382 7.31984 81.6604 6.49478C84.0038 5.66691 87.0576 5.00288 90.8218 4.50271C93.1481 4.19362 95.0041 3.99004 96.3899 3.89199C97.7969 3.79112 99.0311 3.76701 100.093 3.81965ZM100.524 22.6146C100.022 22.7244 99.5898 22.6311 99.2276 22.3349C98.8866 22.0359 98.6753 21.5797 98.5938 20.9665C98.518 20.3955 98.5992 19.9543 98.8376 19.6428C99.0972 19.3286 99.499 19.1138 100.043 18.9984L106.462 17.4999C106.985 17.3874 107.405 17.4714 107.722 17.7521C108.057 18.0089 108.264 18.4333 108.343 19.0254C108.495 20.1674 108.028 20.8643 106.942 21.1161L100.524 22.6146ZM116.143 28.6418C115.615 28.712 115.128 28.6153 114.684 28.3514C114.24 28.0876 113.973 27.6173 113.883 26.9406L113.869 26.5875C113.812 24.3784 113.786 22.0791 113.792 19.6895C113.815 17.2761 113.859 15.4195 113.923 14.1197L111.542 15.1463L111.169 15.2603C110.768 15.3137 110.429 15.1973 110.154 14.911C109.88 14.6247 109.716 14.2806 109.662 13.8788L109.656 13.5891C109.645 13.1817 109.728 12.837 109.906 12.5552C110.084 12.2733 110.452 11.9662 111.01 11.6337C111.59 11.2984 112.463 10.9027 113.629 10.4465L114.919 9.95223C115.391 9.78186 115.786 9.67561 116.103 9.63346C116.716 9.55197 117.192 9.65016 117.53 9.92803C117.89 10.2031 118.107 10.6261 118.183 11.1971C118.217 11.4509 118.222 11.73 118.198 12.0345C118.078 13.729 118.057 18.5094 118.134 26.3758C118.139 27.7094 117.475 28.4648 116.143 28.6418Z" fill="url(#paint0_linear_193_101)" shape-rendering="crispEdges"/>
</g>
<defs>
<filter id="filter0_d_193_101" x="0.233203" y="0.570496" width="125.389" height="64.1232" filterUnits="userSpaceOnUse" color-interpolation-filters="sRGB">
<feFlood flood-opacity="0" result="BackgroundImageFix"/>
<feColorMatrix in="SourceAlpha" type="matrix" values="0 0 0 0 0 0 0 0 0 0 0 0 0 0 0 0 0 0 127 0" result="hardAlpha"/>
<feOffset dy="4"/>
<feGaussianBlur stdDeviation="1.65"/>
<feComposite in2="hardAlpha" operator="out"/>
<feColorMatrix type="matrix" values="0 0 0 0 0.875 0 0 0 0 0.220937 0 0 0 0 0.220937 0 0 0 0.25 0"/>
<feBlend mode="normal" in2="BackgroundImageFix" result="effect1_dropShadow_193_101"/>
<feBlend mode="normal" in="SourceGraphic" in2="effect1_dropShadow_193_101" result="shape"/>
</filter>
<linearGradient id="paint0_linear_193_101" x1="58.9903" y1="-6.29463" x2="66.3664" y2="49.2175" gradientUnits="userSpaceOnUse">
<stop offset="0.151" stop-color="#6CA6FF" stop-opacity="0.88"/>
<stop offset="0.451" stop-color="#996BAD" stop-opacity="0.8"/>
<stop offset="0.566" stop-color="#A34B8F"/>
<stop offset="0.751" stop-color="#E74259"/>
</linearGradient>
</defs>
</svg>
